<?xml version="1.0" encoding="UTF-8"?><svg id="Layer_1" xmlns="http://www.w3.org/2000/svg" viewBox="0 0 845.48 862.59"><defs><style>.cls-1{fill:#fff;}</style></defs><path class="cls-1" d="M431.29,862.59c-56.16,0-110.87-10.56-162.62-31.39-53.77-21.65-101.84-53.42-142.85-94.43-41.01-41.01-72.79-89.08-94.43-142.85C10.56,542.16,0,487.45,0,431.29s10.56-110.87,31.39-162.62c21.65-53.77,53.42-101.84,94.43-142.85S214.9,53.04,268.67,31.39C320.42,10.56,375.14,0,431.29,0s110.87,10.56,162.62,31.39c53.77,21.65,101.84,53.42,142.85,94.43,28.12,28.12,28.12,73.71,0,101.82-28.12,28.12-73.71,28.12-101.82,0-112.29-112.29-295-112.29-407.29,0-112.29,112.29-112.29,295,0,407.29,112.29,112.29,295,112.29,407.29,0,28.12-28.12,73.7-28.12,101.82,0,28.12,28.12,28.12,73.71,0,101.82-41.01,41.01-89.08,72.79-142.85,94.43-51.75,20.83-106.46,31.39-162.62,31.39Z"/><circle class="cls-1" cx="773.48" cy="503.29" r="72"/></svg>