<?xml version="1.0" encoding="UTF-8"?><svg id="Layer_1" xmlns="http://www.w3.org/2000/svg" viewBox="0 0 512 512"><defs><style>.cls-1{fill:#fff;}</style></defs><path class="cls-1" d="M483.48,197.6c2.21-1.77,3.37-3.68,3.85-5.68-26.46-95.72-110.72-167.44-212.86-175.21h-.01c-1.76-.13-3.52-.24-5.29-.34-.72-.04-1.45-.07-2.17-.1-1.11-.05-2.23-.09-3.35-.13-.78-.02-1.55-.05-2.33-.07-1.52-.03-3.03-.05-4.56-.06-.29,0-.58,0-.87,0-2.03,0-4.05,.03-6.07,.08h-.05C142.04,18.83,51.97,92.57,24.57,192.26c-.95,8.24,1.71,14.41,10.33,17.6,28.61,10.61,46.99,33.54,67.74,53.67,46.53,45.13,84.01,43.26,125.22-6.47,4.91-5.93,10.1-11.62,15.11-17.48,67.72-79.27,125.56-91.63,219.61-47.1,6.62,3.13,13.71,10.87,20.9,5.12Z"/><path class="cls-1" d="M495.56,270.33c-1.89-11.23-10.27-16.5-29.99-25.2-14.81-6.53-29.53-13.28-44.1-20.35-45.9-22.26-86.41-12.93-121.57,21.98-19.38,19.23-36.2,41.05-55.58,60.28-45.91,45.53-107.67,47.3-156.52,4.93-14.18-12.3-26.75-26.45-40.58-39.18-7.28-6.7-15.02-17.79-25.78-12.44-3.19,1.59-4.64,3.95-5.18,6.71,.19,4.19,.48,8.36,.89,12.5,.24,1.57,.44,3.12,.5,4.61,13.22,113.14,105.12,202.25,219.53,211.12,.27,.02,.54,.04,.81,.06,1.43,.11,2.86,.19,4.3,.27,.78,.04,1.55,.09,2.33,.12,.99,.05,1.99,.08,2.98,.11,1,.03,2,.07,3,.09,1.12,.02,2.25,.03,3.37,.04,.76,0,1.52,.02,2.28,.02,127.62-.13,231.9-99.88,239.31-225.67Z"/></svg>